<?xml version="1.0" encoding="UTF-8" standalone="no"?>
<svg
   xmlns:dc="http://purl.org/dc/elements/1.1/"
   xmlns:cc="http://creativecommons.org/ns#"
   xmlns:rdf="http://www.w3.org/1999/02/22-rdf-syntax-ns#"
   xmlns:svg="http://www.w3.org/2000/svg"
   xmlns="http://www.w3.org/2000/svg"
   xmlns:sodipodi="http://sodipodi.sourceforge.net/DTD/sodipodi-0.dtd"
   xmlns:inkscape="http://www.inkscape.org/namespaces/inkscape"
   version="1.1"
   x="0px"
   y="0px"
   viewBox="0 0 83.852867 95.342331"
   enable-background="new 0 0 100 100"
   xml:space="preserve"
   id="svg2"
   inkscape:version="0.91 r13725"
   sodipodi:docname="noun_38748_cc.svg"
   width="83.852867"
   height="95.342331"><metadata
     id="metadata18"><rdf:RDF><cc:Work
         rdf:about=""><dc:format>image/svg+xml</dc:format><dc:type
           rdf:resource="http://purl.org/dc/dcmitype/StillImage" /><dc:title></dc:title></cc:Work></rdf:RDF></metadata><defs
     id="defs16" /><sodipodi:namedview
     pagecolor="#ffffff"
     bordercolor="#666666"
     borderopacity="1"
     objecttolerance="10"
     gridtolerance="10"
     guidetolerance="10"
     inkscape:pageopacity="0"
     inkscape:pageshadow="2"
     inkscape:window-width="852"
     inkscape:window-height="480"
     id="namedview14"
     showgrid="false"
     fit-margin-top="0"
     fit-margin-left="10"
     fit-margin-right="0"
     fit-margin-bottom="0"
     inkscape:zoom="1.888"
     inkscape:cx="33.234988"
     inkscape:cy="43.628798"
     inkscape:window-x="0"
     inkscape:window-y="0"
     inkscape:window-maximized="0"
     inkscape:current-layer="svg2" /><path
     d="m 83.374847,30.850333 c -6.738,0 -10.68,0 -15.312,0 -15.645,0 -23.133,1.801 -26.719,3.457 -0.777,-0.945 -1.949,-1.562 -3.273,-1.562 -0.887,0 -1.711,0.27 -2.391,0.73 -0.898,-1.57 -1.738,-3.422 -1.836,-5.09 -0.227,-3.801 -15.704,-20.3950001 -22.278,-28.38300006 0,0 -2.0159998,-0.09 -1.473,0.848 3.363,5.82799996 5.332,9.24200006 7.652,13.25800006 7.812,13.535 13.117,19.117 16.34,21.402 -0.172,0.469 -0.281,0.969 -0.281,1.496 0,1.691 0.996,3.145 2.426,3.828 -0.914,1.57 -2.113,3.219 -3.512,4.141 -3.172,2.098 -9.809,23.797 -13.441,33.484 0,0 0.934,1.789 1.477,0.852 3.363,-5.828 5.332,-9.242 7.648,-13.258 7.832,-13.566 10,-20.93 10.355,-24.855 2.027,-0.324 3.578,-2.07 3.578,-4.191 0,-0.109 -0.023,-0.215 -0.031,-0.32 1.809,0.004 3.848,0.219 5.348,0.969 3.398,1.699 25.512,-3.406 35.711,-5.102 0.001,-10e-4 1.094,-1.704 0.012,-1.704 z"
     id="path4"
     inkscape:connector-curvature="0" /><g
     id="g6"
     transform="translate(-6.7401528,-1.4196671)"><path
       d="m 46.595,48.68 c -0.477,3.508 -2.02,8.027 -4.605,13.52 l -1.43,34.562 9.27,0 -2.172,-48.605 c -0.336,0.198 -0.68,0.398 -1.063,0.523 z"
       id="path8"
       inkscape:connector-curvature="0" /></g></svg>